<svg xmlns="http://www.w3.org/2000/svg" xmlns:svg="http://www.w3.org/2000/svg" id="svg2" width="100%" height="100%" x="0" y="0" version="1.1" viewBox="0 0 100 100" xml:space="preserve"><metadata id="metadata18"/><style id="style4" type="text/css">.st0{fill:#010101}</style><path id="path6" fill="#010101" d="M 50.178206,12.419566 C 48.116816,2.7189093 40.633452,14.740794 27.658824,18.63838 14.285776,22.674546 4.2213451,13.337664 7.3220907,24.510741 13.887356,48.052156 29.269826,61.875592 39.853935,58.480362 c 0.831485,-0.259839 3.118069,-0.762195 3.897586,-1.125969 0.658258,-5.560555 1.940131,-11.58882 4.39994,-17.807634 1.992099,-5.040877 3.568456,-4.781038 6.028265,-2.563745 0.259839,-6.340072 -1.818873,-14.256501 -4.00152,-24.563448 z M 22.115592,32.444493 c -3.308617,0.450387 -5.785749,3.100745 -5.889684,2.407841 -0.103936,-0.710227 2.217293,-4.486554 5.543232,-4.954264 3.308617,-0.450387 6.374717,2.59839 6.478653,3.291294 0.08661,0.710227 -2.823584,-1.195259 -6.132201,-0.744871 z m 15.954115,15.555695 c -4.122779,1.281873 -9.52743,-1.559034 -10.029786,-3.170036 -0.502355,-1.611002 4.088134,-0.831485 8.228236,-2.113357 4.140102,-1.281872 7.881783,-4.486554 8.384139,-2.875552 0.485033,1.611002 -2.459809,6.877073 -6.582589,8.158945 z m 3.32594,-21.237509 c -3.014133,1.437776 -4.573167,4.711748 -4.884974,4.070812 -0.311806,-0.640937 0.762195,-4.954264 3.776327,-6.39204 3.014133,-1.437776 6.85975,0.537001 7.171557,1.177937 0.294484,0.640936 -3.048778,-0.294484 -6.06291,1.143291 z" class="st0"/><path id="path8" fill="#010101" d="M 70.72281,51.048966 C 57.626924,46.21596 55.219082,32.687009 50.975045,43.478989 42.01926,66.223565 45.968814,86.525653 56.448987,90.198044 66.929161,93.870436 78.621916,89.210656 92.445352,59.658299 96.654744,50.667869 83.437599,55.743391 70.72281,51.048966 z m -18.413925,4.815683 c 0.155904,-0.692904 2.407842,2.148003 5.664491,2.892875 3.273972,0.727549 6.322749,-0.935421 6.166846,-0.242517 -0.155903,0.692904 -3.447198,3.481843 -6.721169,2.754294 -3.273972,-0.744872 -5.266071,-4.711748 -5.110168,-5.404652 z m 16.300568,26.364999 c -0.623614,1.559034 -4.105456,-1.940131 -8.106977,-3.551133 -4.001521,-1.611002 -8.643978,-1.229905 -8.020364,-2.788939 0.623613,-1.559034 6.236136,-3.932231 10.254979,-2.321229 4.001521,1.59368 6.495976,7.084944 5.872362,8.661301 z M 82.675405,67.66134 c -0.363775,0.606291 -4.347973,2.269261 -7.240847,0.588969 -2.892875,-1.680292 -3.585779,-6.080233 -3.239327,-6.686524 0.363775,-0.606291 1.628325,2.788939 4.521199,4.469231 2.892875,1.680292 6.305427,1.004711 5.958975,1.628324 z" class="st0"/></svg>