<svg xmlns="http://www.w3.org/2000/svg" xmlns:xlink="http://www.w3.org/1999/xlink" id="Layer_1" width="100.25" height="100.25" x="0" y="0" enable-background="new 0 0 100.25 100.25" version="1.1" viewBox="0 0 100.25 100.25" xml:space="preserve"><g><g><g><polygon points="65.859 54.56 53.955 54.56 53.955 66.466 42.046 66.466 42.046 54.56 28.947 54.56 28.947 42.653 42.046 42.653 42.046 29.555 53.955 29.555 53.955 42.653 65.859 42.653"/></g></g><defs><filter id="Adobe_OpacityMaskFilter" width="36.912" height="36.911" x="28.947" y="29.555" filterUnits="userSpaceOnUse"><feColorMatrix type="matrix" values="1 0 0 0 0 0 1 0 0 0 0 0 1 0 0 0 0 0 1 0"/></filter></defs><mask id="SVGID_2_" width="36.912" height="36.911" x="28.947" y="29.555" maskUnits="userSpaceOnUse"><g filter="url(#Adobe_OpacityMaskFilter)"><image width="115" height="113" enable-background="new" overflow="visible" transform="matrix(0.348 0 0 0.3542 27.4585 28.0664)" xlink:href="CFC9DFA77F857397.jpg"/></g></mask><g mask="url(#SVGID_2_)" opacity=".75"><g><polygon points="65.859 54.56 53.955 54.56 53.955 66.466 42.046 66.466 42.046 54.56 28.947 54.56 28.947 42.653 42.046 42.653 42.046 29.555 53.955 29.555 53.955 42.653 65.859 42.653"/></g></g></g></svg>